<?xml version="1.0" encoding="utf-8"?>
<!-- Generated by Mocodo 4.3.2 -->
<svg width="704" height="330" viewBox="0 0 704 330" xmlns="http://www.w3.org/2000/svg">
<rect x="0" y="0" width="704" height="330" fill="#f7f7f7" stroke="none" stroke-width="0"/>

<!-- Association FACTURE -->
<g>
	<line x1="55" y1="245" x2="55" y2="85" stroke="#8073ac" stroke-width="2"/>
	<line x1="165" y1="85" x2="55" y2="85" stroke="#8073ac" stroke-width="2"/>
	<g>
		<path d="M77 60 a14 14 90 0 1 14 14 V85 h-72 V74 a14 14 90 0 1 14 -14" fill="#b2abd2" stroke="#b2abd2" stroke-width="0"/>
		<path d="M91 85 v11 a14 14 90 0 1 -14 14 H33 a14 14 90 0 1 -14 -14 V85 H72" fill="#d8daeb" stroke="#d8daeb" stroke-width="0"/>
		<rect x="19" y="60" width="72" height="50" fill="none" rx="14" stroke="#8073ac" stroke-width="2"/>
		<line x1="19" y1="85" x2="91" y2="85" stroke="#8073ac" stroke-width="1"/>
		<text x="27" y="77.75" fill="#000000" font-family="Verdana" font-size="12">FACTURE</text>
	</g>
	<text x="60" y="178" fill="#b35806" font-family="Verdana" font-size="12">1,1</text>
	<text x="99" y="102" fill="#b35806" font-family="Verdana" font-size="12">1,1</text>
</g>

<!-- Association UTILISE -->
<g>
	<line x1="373" y1="85" x2="269" y2="85" stroke="#8073ac" stroke-width="2"/>
	<line x1="269" y1="245" x2="269" y2="85" stroke="#8073ac" stroke-width="2"/>
	<g>
		<path d="M287 60 a14 14 90 0 1 14 14 V85 h-64 V74 a14 14 90 0 1 14 -14" fill="#b2abd2" stroke="#b2abd2" stroke-width="0"/>
		<path d="M301 85 v11 a14 14 90 0 1 -14 14 H251 a14 14 90 0 1 -14 -14 V85 H64" fill="#d8daeb" stroke="#d8daeb" stroke-width="0"/>
		<rect x="237" y="60" width="64" height="50" fill="none" rx="14" stroke="#8073ac" stroke-width="2"/>
		<line x1="237" y1="85" x2="301" y2="85" stroke="#8073ac" stroke-width="1"/>
		<text x="244" y="77.75" fill="#000000" font-family="Verdana" font-size="12">UTILISE</text>
	</g>
	<text x="306" y="102" fill="#b35806" font-family="Verdana" font-size="12">1,N</text>
	<text x="274" y="178" fill="#b35806" font-family="Verdana" font-size="12">1,1</text>
</g>

<!-- Association POSSEDE_ADRESSE -->
<g>
	<line x1="514" y1="245" x2="514" y2="85" stroke="#8073ac" stroke-width="2"/>
	<line x1="373" y1="85" x2="514" y2="85" stroke="#8073ac" stroke-width="2"/>
	<g>
		<path d="M569 60 a14 14 90 0 1 14 14 V85 h-138 V74 a14 14 90 0 1 14 -14" fill="#b2abd2" stroke="#b2abd2" stroke-width="0"/>
		<path d="M583 85 v11 a14 14 90 0 1 -14 14 H459 a14 14 90 0 1 -14 -14 V85 H138" fill="#d8daeb" stroke="#d8daeb" stroke-width="0"/>
		<rect x="445" y="60" width="138" height="50" fill="none" rx="14" stroke="#8073ac" stroke-width="2"/>
		<line x1="445" y1="85" x2="583" y2="85" stroke="#8073ac" stroke-width="1"/>
		<text x="452" y="77.75" fill="#000000" font-family="Verdana" font-size="12">POSSEDE_ADRESSE</text>
	</g>
	<text x="519" y="161" fill="#b35806" font-family="Verdana" font-size="12">1,N</text>
	<text x="418" y="102" fill="#b35806" font-family="Verdana" font-size="12">1,1</text>
</g>

<!-- Association GENERE -->
<g>
	<line x1="269" y1="245" x2="165" y2="245" stroke="#8073ac" stroke-width="2"/>
	<line x1="55" y1="245" x2="165" y2="245" stroke="#8073ac" stroke-width="2"/>
	<g>
		<path d="M183 220 a14 14 90 0 1 14 14 V245 h-64 V234 a14 14 90 0 1 14 -14" fill="#b2abd2" stroke="#b2abd2" stroke-width="0"/>
		<path d="M197 245 v11 a14 14 90 0 1 -14 14 H147 a14 14 90 0 1 -14 -14 V245 H64" fill="#d8daeb" stroke="#d8daeb" stroke-width="0"/>
		<rect x="133" y="220" width="64" height="50" fill="none" rx="14" stroke="#8073ac" stroke-width="2"/>
		<line x1="133" y1="245" x2="197" y2="245" stroke="#8073ac" stroke-width="1"/>
		<text x="140" y="237.75" fill="#000000" font-family="Verdana" font-size="12">GENERE</text>
	</g>
	<text x="203" y="262" fill="#b35806" font-family="Verdana" font-size="12">1,1</text>
	<text x="106" y="262" fill="#b35806" font-family="Verdana" font-size="12">1,1</text>
</g>

<!-- Association PASSE -->
<g>
	<line x1="514" y1="245" x2="373" y2="245" stroke="#8073ac" stroke-width="2"/>
	<line x1="269" y1="245" x2="373" y2="245" stroke="#8073ac" stroke-width="2"/>
	<g>
		<path d="M386 220 a14 14 90 0 1 14 14 V245 h-54 V234 a14 14 90 0 1 14 -14" fill="#b2abd2" stroke="#b2abd2" stroke-width="0"/>
		<path d="M400 245 v11 a14 14 90 0 1 -14 14 H360 a14 14 90 0 1 -14 -14 V245 H54" fill="#d8daeb" stroke="#d8daeb" stroke-width="0"/>
		<rect x="346" y="220" width="54" height="50" fill="none" rx="14" stroke="#8073ac" stroke-width="2"/>
		<line x1="346" y1="245" x2="400" y2="245" stroke="#8073ac" stroke-width="1"/>
		<text x="353" y="237.75" fill="#000000" font-family="Verdana" font-size="12">PASSE</text>
	</g>
	<text x="447" y="262" fill="#b35806" font-family="Verdana" font-size="12">1,N</text>
	<text x="314" y="262" fill="#b35806" font-family="Verdana" font-size="12">1,1</text>
</g>

<!-- Association POSSEDE -->
<g>
	<line x1="655" y1="85" x2="655" y2="245" stroke="#8073ac" stroke-width="2"/>
	<line x1="514" y1="245" x2="655" y2="245" stroke="#8073ac" stroke-width="2"/>
	<g>
		<path d="M678 220 a14 14 90 0 1 14 14 V245 h-74 V234 a14 14 90 0 1 14 -14" fill="#b2abd2" stroke="#b2abd2" stroke-width="0"/>
		<path d="M692 245 v11 a14 14 90 0 1 -14 14 H632 a14 14 90 0 1 -14 -14 V245 H74" fill="#d8daeb" stroke="#d8daeb" stroke-width="0"/>
		<rect x="618" y="220" width="74" height="50" fill="none" rx="14" stroke="#8073ac" stroke-width="2"/>
		<line x1="618" y1="245" x2="692" y2="245" stroke="#8073ac" stroke-width="1"/>
		<text x="626" y="237.75" fill="#000000" font-family="Verdana" font-size="12">POSSEDE</text>
	</g>
	<text x="660" y="153" fill="#b35806" font-family="Verdana" font-size="12">1,N</text>
	<text x="559" y="262" fill="#b35806" font-family="Verdana" font-size="12">1,1</text>
</g>

<!-- Entity BILL -->
<g>
	<g>
		<rect x="125" y="34" width="80" height="25" fill="#fdb863" stroke="none" stroke-width="0" opacity="1"/>
		<rect x="125" y="59" width="80" height="77" fill="#fee0b6" stroke="none" stroke-width="0" opacity="1"/>
		<rect x="125" y="34" width="80" height="102" fill="none" stroke="#e08214" stroke-width="2" opacity="1"/>
		<line x1="125" y1="59" x2="205" y2="59" stroke="#e08214" stroke-width="1"/>
	</g>
	<text x="151" y="51.75" fill="#000000" font-family="Verdana" font-size="12">BILL</text>
	<text x="130" y="76.8" fill="#000000" font-family="Verdana" font-size="12">id</text>
	<line x1="130" y1="79" x2="142" y2="79" stroke="#000000" stroke-width="1"/>
	<text x="130" y="93.8" fill="#000000" font-family="Verdana" font-size="12">amount</text>
	<text x="130" y="110.8" fill="#000000" font-family="Verdana" font-size="12">created_at</text>
	<text x="130" y="127.8" fill="#000000" font-family="Verdana" font-size="12">updated_at</text>
</g>

<!-- Entity ADDRESS -->
<g>
	<g>
		<rect x="333" y="9" width="80" height="25" fill="#fdb863" stroke="none" stroke-width="0" opacity="1"/>
		<rect x="333" y="34" width="80" height="127" fill="#fee0b6" stroke="none" stroke-width="0" opacity="1"/>
		<rect x="333" y="9" width="80" height="152" fill="none" stroke="#e08214" stroke-width="2" opacity="1"/>
		<line x1="333" y1="34" x2="413" y2="34" stroke="#e08214" stroke-width="1"/>
	</g>
	<text x="343" y="26.75" fill="#000000" font-family="Verdana" font-size="12">ADDRESS</text>
	<text x="338" y="51.8" fill="#000000" font-family="Verdana" font-size="12">id</text>
	<line x1="338" y1="54" x2="350" y2="54" stroke="#000000" stroke-width="1"/>
	<text x="338" y="68.8" fill="#000000" font-family="Verdana" font-size="12">street</text>
	<text x="338" y="85.8" fill="#000000" font-family="Verdana" font-size="12">city</text>
	<text x="338" y="102.8" fill="#000000" font-family="Verdana" font-size="12">zip_code</text>
	<text x="338" y="119.8" fill="#000000" font-family="Verdana" font-size="12">country</text>
	<text x="338" y="136.8" fill="#000000" font-family="Verdana" font-size="12">created_at</text>
	<text x="338" y="153.8" fill="#000000" font-family="Verdana" font-size="12">updated_at</text>
</g>

<!-- Entity ROLE -->
<g>
	<g>
		<rect x="615" y="34" width="80" height="25" fill="#fdb863" stroke="none" stroke-width="0" opacity="1"/>
		<rect x="615" y="59" width="80" height="77" fill="#fee0b6" stroke="none" stroke-width="0" opacity="1"/>
		<rect x="615" y="34" width="80" height="102" fill="none" stroke="#e08214" stroke-width="2" opacity="1"/>
		<line x1="615" y1="59" x2="695" y2="59" stroke="#e08214" stroke-width="1"/>
	</g>
	<text x="639" y="51.75" fill="#000000" font-family="Verdana" font-size="12">ROLE</text>
	<text x="620" y="76.8" fill="#000000" font-family="Verdana" font-size="12">id</text>
	<line x1="620" y1="79" x2="632" y2="79" stroke="#000000" stroke-width="1"/>
	<text x="620" y="93.8" fill="#000000" font-family="Verdana" font-size="12">name</text>
	<text x="620" y="110.8" fill="#000000" font-family="Verdana" font-size="12">created_at</text>
	<text x="620" y="127.8" fill="#000000" font-family="Verdana" font-size="12">updated_at</text>
</g>

<!-- Entity DELIVERY -->
<g>
	<g>
		<rect x="9" y="186" width="92" height="25" fill="#fdb863" stroke="none" stroke-width="0" opacity="1"/>
		<rect x="9" y="211" width="92" height="93" fill="#fee0b6" stroke="none" stroke-width="0" opacity="1"/>
		<rect x="9" y="186" width="92" height="118" fill="none" stroke="#e08214" stroke-width="2" opacity="1"/>
		<line x1="9" y1="211" x2="101" y2="211" stroke="#e08214" stroke-width="1"/>
	</g>
	<text x="25" y="203.75" fill="#000000" font-family="Verdana" font-size="12">DELIVERY</text>
	<text x="14" y="228.8" fill="#000000" font-family="Verdana" font-size="12">id</text>
	<line x1="14" y1="231" x2="26" y2="231" stroke="#000000" stroke-width="1"/>
	<text x="14" y="245.8" fill="#000000" font-family="Verdana" font-size="12">status</text>
	<text x="14" y="262.8" fill="#000000" font-family="Verdana" font-size="12">scheduled_at</text>
	<text x="14" y="279.8" fill="#000000" font-family="Verdana" font-size="12">created_at</text>
	<text x="14" y="296.8" fill="#000000" font-family="Verdana" font-size="12">updated_at</text>
</g>

<!-- Entity COMMAND -->
<g>
	<g>
		<rect x="229" y="186" width="80" height="25" fill="#fdb863" stroke="none" stroke-width="0" opacity="1"/>
		<rect x="229" y="211" width="80" height="93" fill="#fee0b6" stroke="none" stroke-width="0" opacity="1"/>
		<rect x="229" y="186" width="80" height="118" fill="none" stroke="#e08214" stroke-width="2" opacity="1"/>
		<line x1="229" y1="211" x2="309" y2="211" stroke="#e08214" stroke-width="1"/>
	</g>
	<text x="236" y="203.75" fill="#000000" font-family="Verdana" font-size="12">COMMAND</text>
	<text x="234" y="228.8" fill="#000000" font-family="Verdana" font-size="12">id</text>
	<line x1="234" y1="231" x2="246" y2="231" stroke="#000000" stroke-width="1"/>
	<text x="234" y="245.8" fill="#000000" font-family="Verdana" font-size="12">volume</text>
	<text x="234" y="262.8" fill="#000000" font-family="Verdana" font-size="12">weight</text>
	<text x="234" y="279.8" fill="#000000" font-family="Verdana" font-size="12">created_at</text>
	<text x="234" y="296.8" fill="#000000" font-family="Verdana" font-size="12">updated_at</text>
</g>

<!-- Entity USER -->
<g>
	<g>
		<rect x="474" y="169" width="80" height="25" fill="#fdb863" stroke="none" stroke-width="0" opacity="1"/>
		<rect x="474" y="194" width="80" height="127" fill="#fee0b6" stroke="none" stroke-width="0" opacity="1"/>
		<rect x="474" y="169" width="80" height="152" fill="none" stroke="#e08214" stroke-width="2" opacity="1"/>
		<line x1="474" y1="194" x2="554" y2="194" stroke="#e08214" stroke-width="1"/>
	</g>
	<text x="497" y="186.75" fill="#000000" font-family="Verdana" font-size="12">USER</text>
	<text x="479" y="211.8" fill="#000000" font-family="Verdana" font-size="12">id</text>
	<line x1="479" y1="214" x2="491" y2="214" stroke="#000000" stroke-width="1"/>
	<text x="479" y="228.8" fill="#000000" font-family="Verdana" font-size="12">email</text>
	<text x="479" y="245.8" fill="#000000" font-family="Verdana" font-size="12">name</text>
	<text x="479" y="262.8" fill="#000000" font-family="Verdana" font-size="12">password</text>
	<text x="479" y="279.8" fill="#000000" font-family="Verdana" font-size="12">phone</text>
	<text x="479" y="296.8" fill="#000000" font-family="Verdana" font-size="12">created_at</text>
	<text x="479" y="313.8" fill="#000000" font-family="Verdana" font-size="12">updated_at</text>
</g>
</svg>